<?xml version="1.0" standalone="no"?>
<!DOCTYPE svg PUBLIC "-//W3C//DTD SVG 20010904//EN"
 "http://www.w3.org/TR/2001/REC-SVG-20010904/DTD/svg10.dtd">
<svg version="1.0" xmlns="http://www.w3.org/2000/svg"
 width="649.000000pt" height="649.000000pt" viewBox="0 0 649.000000 649.000000"
 preserveAspectRatio="xMidYMid meet">
<metadata>
Created by potrace 1.14, written by Peter Selinger 2001-2017
</metadata>
<g transform="translate(0.000000,649.000000) scale(0.100000,-0.100000)"
fill="#000000" stroke="none">
<path d="M2598 6464 c-4 -3 -85 -7 -180 -8 -168 -1 -175 -2 -230 -30 -31 -15
-62 -34 -69 -42 -6 -8 -15 -14 -20 -14 -4 0 -29 -20 -55 -45 -25 -25 -49 -45
-52 -46 -4 0 -38 -2 -77 -4 -67 -2 -155 -28 -155 -45 0 -4 -9 -10 -19 -13 -20
-5 -63 -65 -56 -77 2 -4 -17 -20 -42 -36 -43 -27 -293 -264 -278 -264 3 0 -8
-20 -25 -44 -16 -25 -30 -47 -30 -50 0 -4 -9 -26 -21 -50 -11 -25 -22 -51 -23
-58 -2 -7 -8 -25 -14 -41 -7 -15 -14 -39 -16 -53 -6 -33 -16 -44 -16 -18 0 15
-4 12 -15 -10 -8 -16 -26 -49 -39 -75 -13 -25 -32 -68 -41 -96 -10 -27 -21
-59 -25 -70 -9 -20 -23 -65 -25 -75 0 -3 -4 -11 -9 -18 -4 -7 -9 -34 -11 -60
-2 -26 -4 -47 -5 -47 -13 0 -30 -230 -35 -470 -3 -165 -6 -212 -20 -390 -9
-104 -22 -192 -31 -207 -3 -5 -7 -19 -8 -31 -8 -67 -19 -107 -29 -107 -7 0 -5
-5 3 -10 8 -5 10 -10 5 -10 -6 0 -12 -8 -13 -17 -3 -32 -7 -48 -15 -60 -5 -7
-6 -13 -3 -13 3 0 -1 -18 -9 -40 -8 -22 -14 -42 -15 -45 0 -3 -1 -7 -1 -10 -1
-3 -2 -8 -3 -12 -5 -19 -26 -121 -31 -153 -4 -19 -10 -53 -14 -75 -4 -22 -7
-74 -7 -116 1 -63 5 -81 26 -112 13 -19 29 -35 34 -34 6 1 11 -8 12 -20 1 -13
-3 -23 -7 -23 -5 0 -9 -6 -9 -14 0 -8 -4 -16 -9 -18 -5 -1 -11 -9 -13 -17 -2
-8 -9 -22 -16 -30 -7 -9 -13 -20 -13 -26 -1 -5 -10 -22 -21 -37 -11 -16 -17
-28 -14 -28 3 0 -6 -25 -20 -56 -14 -31 -22 -59 -19 -62 6 -7 6 -7 41 48 15
25 27 48 26 53 -1 4 5 7 13 7 8 0 15 7 15 15 0 8 5 15 11 15 5 0 7 5 4 10 -3
6 2 10 12 10 15 0 16 2 3 10 -9 6 -10 10 -3 10 14 0 26 12 73 70 19 24 47 56
62 71 14 15 24 30 22 32 -3 3 2 7 11 10 8 4 15 2 15 -3 0 -6 8 -10 18 -10 10
0 13 -3 6 -8 -6 -4 -10 -15 -8 -25 1 -11 0 -16 -3 -13 -8 7 -44 -65 -37 -75 3
-5 0 -9 -5 -9 -6 0 -11 -9 -11 -20 0 -11 -4 -20 -9 -20 -5 0 -8 -8 -6 -17 1
-10 -1 -22 -5 -28 -7 -9 -29 -71 -38 -105 -2 -8 -5 -62 -7 -120 -3 -77 0 -116
11 -145 8 -22 17 -48 21 -57 3 -10 9 -18 14 -18 5 0 9 -6 9 -14 0 -8 5 -18 12
-22 7 -5 8 -3 3 6 -5 8 -4 11 3 7 12 -8 4 -47 -10 -47 -5 0 -6 -5 -3 -10 3 -5
-1 -10 -9 -10 -9 0 -16 -5 -16 -11 0 -7 -15 -26 -32 -43 -18 -17 -32 -34 -31
-38 2 -5 -2 -8 -8 -8 -5 0 -7 -5 -3 -12 4 -7 3 -8 -4 -4 -6 3 -16 -3 -22 -14
-6 -11 -15 -18 -20 -15 -5 3 -11 -4 -15 -15 -4 -11 -11 -17 -17 -14 -7 5 -9 1
-5 -9 3 -10 2 -17 -2 -17 -11 0 -57 -72 -53 -82 1 -5 -2 -8 -7 -8 -5 0 -12
-14 -16 -30 -4 -17 -10 -30 -14 -30 -3 0 -8 -12 -9 -26 -1 -15 -7 -33 -13 -40
-6 -8 -8 -14 -3 -14 5 0 10 -35 11 -77 1 -42 6 -79 10 -82 4 -3 15 -15 23 -25
13 -18 13 -19 0 -11 -9 5 -8 0 4 -13 11 -12 15 -22 10 -22 -5 0 -2 -4 6 -10
12 -7 12 -11 -3 -28 -37 -41 -108 -68 -169 -66 -80 4 -77 -10 12 -58 30 -16
59 -23 87 -22 40 2 41 1 33 -22 -5 -13 -8 -24 -6 -24 3 0 -7 -21 -20 -46 -13
-25 -22 -50 -19 -55 4 -5 1 -9 -5 -9 -6 0 -9 -4 -5 -9 3 -5 0 -13 -6 -16 -5
-4 -8 -13 -5 -21 3 -7 2 -15 -2 -18 -14 -9 -19 -146 -8 -201 4 -16 14 -45 22
-64 9 -18 17 -39 18 -45 1 -6 5 -16 9 -22 6 -10 -56 -68 -73 -69 -3 0 -12 -5
-20 -10 -15 -9 -41 -15 -72 -16 -26 0 -30 -14 -10 -35 29 -32 54 -40 123 -39
l67 1 -11 -31 c-5 -16 -13 -34 -18 -40 -4 -5 -15 -39 -24 -74 -18 -69 -14
-134 10 -181 8 -15 11 -30 8 -34 -4 -3 -2 -6 4 -6 18 0 3 -37 -20 -49 -12 -6
-34 -12 -48 -13 -18 -2 -26 -7 -24 -18 2 -8 4 -19 4 -24 1 -5 4 -6 8 -3 3 4
12 2 20 -4 7 -7 36 -12 63 -13 43 -1 50 -4 50 -21 0 -12 -5 -26 -12 -33 -13
-13 -16 -113 -4 -152 4 -14 8 -30 9 -36 2 -6 11 -19 20 -29 14 -13 20 -15 32
-5 8 7 12 16 9 21 -3 5 -2 9 3 9 11 0 40 -20 30 -20 -12 0 61 -70 73 -70 6 0
9 -4 6 -9 -9 -13 35 -27 94 -30 l55 -1 -26 23 c-15 13 -30 34 -34 46 -3 11
-10 21 -14 21 -4 0 -5 20 -1 44 10 69 49 119 134 174 22 15 44 31 48 37 4 5 8
6 8 1 0 -5 6 -3 14 3 29 25 71 -23 79 -91 1 -15 6 -30 9 -34 4 -3 3 -17 -2
-30 -5 -13 -6 -24 -2 -24 11 0 7 -93 -4 -111 -4 -8 -9 -20 -11 -28 -1 -8 -8
-18 -15 -22 -8 -5 12 -9 48 -9 55 0 63 3 79 26 9 14 24 33 33 43 23 24 64 106
66 131 1 19 15 29 17 13 0 -5 7 -23 14 -40 8 -18 12 -33 9 -33 -6 0 48 -77 79
-112 23 -26 30 -28 101 -28 76 0 77 0 90 30 l12 30 22 -30 c18 -24 30 -30 58
-30 l35 0 -3 85 c-2 47 0 85 5 85 4 0 7 -9 7 -20 0 -11 12 -49 26 -85 l26 -65
1352 2 1351 3 -1 48 c-1 29 3 47 10 47 7 0 19 41 29 98 l18 97 56 -1 c75 -1
125 14 147 44 11 14 14 22 8 18 -7 -4 -12 -1 -12 8 0 9 -6 16 -13 16 -18 0
-59 48 -52 60 4 6 2 10 -2 10 -12 0 -5 162 7 178 2 1 3 6 4 10 3 18 41 98 51
104 5 4 7 8 3 8 -7 0 49 99 62 110 4 3 10 12 14 20 4 8 12 24 19 35 28 44 61
110 59 118 -1 4 3 7 8 7 6 0 10 9 10 19 0 11 5 23 10 26 6 4 9 12 8 18 -1 7 3
21 9 32 6 11 14 38 17 60 4 22 14 50 22 63 10 15 11 21 3 17 -8 -5 -10 -4 -5
3 10 16 26 15 26 -2 0 -8 7 -16 15 -20 8 -3 12 -12 9 -21 -3 -8 -1 -15 5 -15
6 0 8 -7 4 -17 -5 -11 -3 -14 6 -8 10 5 11 2 7 -13 -4 -11 -2 -23 4 -27 5 -3
10 -17 10 -31 0 -13 5 -24 11 -24 5 0 7 6 3 13 -4 6 -3 9 1 4 11 -10 14 -48 3
-41 -4 3 -9 -6 -9 -20 -1 -25 -3 -36 -9 -53 -1 -5 -1 -12 0 -18 1 -5 -2 -7 -6
-2 -4 4 -17 -12 -29 -35 -42 -87 -68 -121 -80 -110 -5 4 -5 2 -2 -5 4 -6 -4
-20 -18 -31 -14 -11 -25 -23 -25 -26 0 -4 -12 -18 -27 -32 -16 -14 -23 -23
-16 -20 6 4 14 2 17 -3 4 -6 18 -6 38 -1 17 5 35 7 39 4 5 -3 9 0 9 6 0 6 4 9
9 6 5 -3 14 1 21 9 7 8 19 15 28 15 8 0 20 6 26 13 6 7 10 10 9 8 -2 -2 1 -9
6 -15 4 -6 11 -32 14 -58 9 -63 45 -128 72 -128 11 0 26 33 29 63 1 4 6 11 11
15 6 4 16 19 24 34 8 16 16 26 19 24 2 -3 15 7 28 21 13 14 24 22 24 17 0 -5
4 -4 8 1 12 17 86 69 77 55 -5 -8 17 11 49 42 31 31 56 58 54 60 -5 7 36 47
44 42 4 -3 5 3 1 12 -5 13 -3 15 8 9 8 -4 11 -5 7 -1 -3 4 0 26 8 49 8 23 12
46 10 53 -3 7 -2 15 2 19 4 4 7 12 7 18 0 6 12 11 27 12 14 0 30 3 34 8 12 12
26 8 18 -5 -6 -9 -3 -9 9 0 15 12 13 17 -14 54 -16 23 -29 48 -29 58 0 9 -5
21 -11 27 -8 8 -5 15 10 25 12 8 18 18 14 21 -3 4 -1 7 6 7 7 0 9 5 6 10 -3 6
-2 10 2 10 10 0 23 32 59 138 24 72 33 190 20 252 -3 14 -6 33 -8 42 -2 10 -7
21 -11 24 -4 4 -7 15 -7 24 0 10 -9 29 -20 43 -12 15 -21 29 -20 32 1 20 -1
25 -10 20 -5 -3 -10 -1 -10 5 0 18 -102 110 -122 110 -10 0 -18 3 -18 8 0 4
-27 20 -60 35 -33 16 -60 33 -60 38 0 5 -6 9 -13 9 -18 0 -77 62 -77 81 0 8
11 23 25 33 14 10 25 25 25 32 0 7 4 14 8 16 4 2 17 25 28 51 17 40 21 67 19
145 -1 54 -5 107 -9 120 -6 18 -3 24 16 31 13 5 27 5 32 0 6 -5 18 -9 28 -9
10 0 18 -3 18 -7 0 -5 10 -9 23 -10 29 -2 108 -25 127 -38 15 -9 34 -15 57
-17 7 -1 12 -4 11 -7 -2 -22 4 -30 19 -24 11 4 14 3 9 -5 -5 -8 2 -12 21 -12
22 0 25 -2 13 -10 -13 -8 -12 -10 3 -10 9 0 17 7 17 15 0 8 -4 15 -10 15 -5 0
-10 7 -10 16 0 8 -4 12 -10 9 -5 -3 -10 -1 -10 5 0 12 -5 18 -63 68 -21 18
-42 30 -47 27 -4 -3 -10 2 -14 10 -3 8 -13 15 -23 15 -10 0 -30 10 -45 23 -15
12 -39 30 -53 40 -14 10 -23 23 -19 28 3 5 1 8 -4 7 -13 -4 -72 61 -72 79 0 7
-4 13 -10 13 -5 0 -10 6 -10 14 0 7 -9 16 -19 19 -18 4 -18 8 -6 68 16 72 13
229 -4 272 -6 15 -10 31 -9 35 3 17 -52 132 -80 165 -8 9 -11 17 -7 17 4 0 -3
9 -16 21 -13 12 -23 25 -22 29 2 5 -6 11 -16 15 -10 3 -24 17 -31 30 -7 14
-19 25 -25 25 -7 0 -20 9 -30 20 -10 11 -21 17 -25 15 -4 -3 -10 2 -14 10 -3
8 -12 15 -20 15 -8 0 -16 4 -18 8 -1 4 -28 19 -58 34 -47 22 -88 38 -205 83
-11 5 -25 9 -32 11 -7 1 -26 9 -44 18 -17 9 -35 13 -40 10 -5 -3 -9 0 -9 5 0
6 -9 11 -20 11 -11 0 -20 4 -20 10 0 5 -3 9 -7 8 -12 -2 -63 24 -64 34 -2 9
-5 25 -9 36 -1 4 -1 12 0 17 1 6 3 51 5 100 1 50 8 104 15 120 16 42 22 85 24
193 4 122 -14 187 -81 295 -13 20 -20 37 -17 37 4 0 -2 8 -12 18 -10 9 -20 24
-22 32 -2 8 -7 17 -11 20 -8 5 -22 36 -27 57 -4 19 60 -6 114 -45 17 -12 32
-20 32 -17 0 3 11 -4 24 -17 80 -77 118 -108 126 -103 6 3 7 -1 4 -9 -4 -11 0
-16 11 -16 10 0 13 -5 9 -12 -4 -7 -3 -8 4 -4 8 5 5 16 -8 38 -10 17 -17 35
-14 40 3 4 -2 8 -10 8 -9 0 -16 7 -16 16 0 8 -7 22 -15 31 -8 8 -12 19 -9 25
4 6 3 8 -3 5 -5 -4 -16 5 -23 18 -7 14 -17 25 -22 25 -4 0 -8 5 -8 11 0 20
-184 189 -207 189 -7 0 -13 3 -13 8 0 4 -21 18 -47 32 -27 14 -54 30 -61 37
-8 7 -18 11 -23 8 -5 -4 -9 -1 -9 4 0 6 -7 11 -15 11 -8 0 -15 5 -15 10 0 6
-9 10 -20 10 -11 0 -20 5 -20 10 0 6 -4 10 -9 10 -18 0 -100 55 -101 68 0 6
-3 11 -7 11 -5 -1 -15 -1 -23 0 -13 1 -13 2 0 11 8 5 10 10 4 10 -6 0 -11 7
-12 15 -1 8 -3 22 -4 30 -1 8 -5 15 -8 15 -4 0 -13 14 -20 30 -7 17 -17 30
-22 30 -5 0 -7 4 -4 8 3 5 -6 27 -20 51 -13 24 -24 49 -24 56 0 7 -3 15 -7 17
-5 2 -28 44 -53 93 -25 50 -49 93 -55 97 -5 4 -6 8 -1 8 5 0 2 8 -6 18 -9 9
-24 33 -33 52 -10 19 -21 37 -25 40 -4 3 -14 19 -23 35 -8 17 -38 61 -66 98
-28 37 -51 73 -51 79 0 6 -2 9 -5 6 -3 -3 -39 27 -80 66 -41 39 -80 76 -87 81
-49 39 -89 65 -124 83 -22 11 -54 33 -72 49 -17 15 -44 38 -59 51 -40 33 -182
104 -193 97 -6 -4 -10 -2 -10 4 0 5 -9 8 -20 6 -11 -2 -55 3 -98 11 -42 8
-108 17 -147 20 -38 3 -83 9 -100 13 -40 10 -169 14 -177 5z m-1647 -2876 c6
-24 12 -50 14 -58 2 -8 8 -27 13 -41 6 -15 8 -30 4 -34 -4 -3 1 -11 11 -16 9
-6 15 -14 12 -20 -4 -5 1 -12 9 -15 23 -9 19 -46 -9 -88 -13 -20 -22 -36 -19
-36 4 0 -42 -72 -62 -99 -1 -1 -12 3 -23 11 -12 8 -18 18 -14 21 3 4 2 7 -3 7
-13 0 -18 40 -17 145 0 93 5 130 15 141 4 3 4 12 2 19 -3 7 -1 16 5 19 5 4 8
18 5 31 -2 14 0 25 6 25 5 0 10 7 10 15 0 33 30 13 41 -27z"/>
</g>
</svg>
